<svg id="email" xmlns="http://www.w3.org/2000/svg" xmlns:xlink="http://www.w3.org/1999/xlink" width="40.594" height="40.593" viewBox="0 0 40.594 40.593">
  <defs>
    <clipPath id="clip-path">
      <rect id="Rectangle_4" data-name="Rectangle 4" width="40.593" height="40.593" fill="none"/>
    </clipPath>
  </defs>
  <g id="Group_8" data-name="Group 8" transform="translate(0 0)" clip-path="url(#clip-path)">
    <path id="Path_28" data-name="Path 28" d="M33.345,40.593H7.249A7.249,7.249,0,0,1,0,33.345V7.249A7.249,7.249,0,0,1,7.249,0h26.1a7.249,7.249,0,0,1,7.249,7.249v26.1a7.249,7.249,0,0,1-7.249,7.249" transform="translate(0 0)" fill="#d75c33"/>
    <path id="Path_29" data-name="Path 29" d="M14.445,15.536l6.473,7.345a1.941,1.941,0,0,0,2.91,0l6.361-7.218a.679.679,0,0,1,.18-.143,2.185,2.185,0,0,0-.88-.184H15.257a2.185,2.185,0,0,0-.845.169c.011.011.023.019.033.031" transform="translate(-2.077 -2.21)" fill="#fff"/>
    <path id="Path_30" data-name="Path 30" d="M31.123,16.541a.682.682,0,0,1-.124.21l-6.362,7.218a3.32,3.32,0,0,1-4.981,0l-6.474-7.345c-.013-.015-.022-.032-.033-.047a2.19,2.19,0,0,0-.317,1.133v9.941a2.2,2.2,0,0,0,2.2,2.2H29.263a2.2,2.2,0,0,0,2.2-2.2V17.709a2.187,2.187,0,0,0-.338-1.168" transform="translate(-1.849 -2.383)" fill="#fff"/>
    <path id="Path_31" data-name="Path 31" d="M14.445,15.536l6.473,7.345a1.941,1.941,0,0,0,2.91,0l6.361-7.218a.679.679,0,0,1,.18-.143,2.185,2.185,0,0,0-.88-.184H15.257a2.185,2.185,0,0,0-.845.169c.011.011.023.019.033.031" transform="translate(-2.077 -2.21)" fill="#fff"/>
    <path id="Path_32" data-name="Path 32" d="M31.123,16.541a.682.682,0,0,1-.124.21l-6.362,7.218a3.32,3.32,0,0,1-4.981,0l-6.474-7.345c-.013-.015-.022-.032-.033-.047a2.19,2.19,0,0,0-.317,1.133v9.941a2.2,2.2,0,0,0,2.2,2.2H29.263a2.2,2.2,0,0,0,2.2-2.2V17.709a2.187,2.187,0,0,0-.338-1.168" transform="translate(-1.849 -2.383)" fill="#fff"/>
  </g>
</svg>
