<svg id="FB" xmlns="http://www.w3.org/2000/svg" xmlns:xlink="http://www.w3.org/1999/xlink" width="40.594" height="40.593" viewBox="0 0 40.594 40.593">
  <defs>
    <clipPath id="clip-path">
      <rect id="Rectangle_2" data-name="Rectangle 2" width="40.593" height="40.593" fill="none"/>
    </clipPath>
  </defs>
  <g id="Group_4" data-name="Group 4" transform="translate(0 0)" clip-path="url(#clip-path)">
    <path id="Path_22" data-name="Path 22" d="M33.345,40.593H7.249A7.249,7.249,0,0,1,0,33.345V7.249A7.249,7.249,0,0,1,7.249,0h26.1a7.249,7.249,0,0,1,7.249,7.249v26.1a7.249,7.249,0,0,1-7.249,7.249" transform="translate(0 0)" fill="#d75c33"/>
    <path id="Path_23" data-name="Path 23" d="M19.667,33.917h4.94V21.544h3.448l.367-4.143H24.608V15.042c0-.977.2-1.363,1.141-1.363h2.674V9.38H25c-3.676,0-5.334,1.619-5.334,4.719v3.3H17.1V21.6h2.57Z" transform="translate(-2.463 -1.352)" fill="#fff"/>
  </g>
</svg>
