<svg id="IG" xmlns="http://www.w3.org/2000/svg" xmlns:xlink="http://www.w3.org/1999/xlink" width="40.594" height="40.593" viewBox="0 0 40.594 40.593">
  <defs>
    <clipPath id="clip-path">
      <rect id="Rectangle_3" data-name="Rectangle 3" width="40.593" height="40.593" fill="none"/>
    </clipPath>
  </defs>
  <g id="Group_6" data-name="Group 6" transform="translate(0 0)" clip-path="url(#clip-path)">
    <path id="Path_24" data-name="Path 24" d="M33.345,40.593H7.249A7.249,7.249,0,0,1,0,33.345V7.249A7.249,7.249,0,0,1,7.249,0h26.1a7.249,7.249,0,0,1,7.249,7.249v26.1a7.249,7.249,0,0,1-7.249,7.249" transform="translate(0 0)" fill="#d75c33"/>
    <path id="Path_25" data-name="Path 25" d="M21.84,12.716c2.972,0,3.324.011,4.5.065a6.124,6.124,0,0,1,2.067.383,3.686,3.686,0,0,1,2.112,2.112,6.155,6.155,0,0,1,.384,2.066c.052,1.173.064,1.526.064,4.5s-.012,3.324-.064,4.5a6.162,6.162,0,0,1-.384,2.067A3.686,3.686,0,0,1,28.4,30.515a6.168,6.168,0,0,1-2.067.383c-1.173.053-1.525.065-4.5.065s-3.324-.012-4.5-.065a6.161,6.161,0,0,1-2.066-.383A3.684,3.684,0,0,1,13.164,28.4a6.168,6.168,0,0,1-.383-2.067c-.053-1.173-.064-1.525-.064-4.5s.011-3.324.064-4.5a6.161,6.161,0,0,1,.383-2.066,3.684,3.684,0,0,1,2.112-2.112,6.117,6.117,0,0,1,2.066-.383c1.173-.054,1.525-.065,4.5-.065m0-2.005c-3.022,0-3.4.013-4.589.067a8.15,8.15,0,0,0-2.7.518A5.684,5.684,0,0,0,11.3,14.55a8.159,8.159,0,0,0-.518,2.7c-.054,1.187-.067,1.566-.067,4.589s.013,3.4.067,4.589a8.15,8.15,0,0,0,.518,2.7,5.689,5.689,0,0,0,3.254,3.255,8.174,8.174,0,0,0,2.7.517c1.187.055,1.566.067,4.589.067s3.4-.012,4.589-.067a8.174,8.174,0,0,0,2.7-.517,5.692,5.692,0,0,0,3.256-3.255,8.176,8.176,0,0,0,.516-2.7c.055-1.187.067-1.566.067-4.589s-.012-3.4-.067-4.589a8.186,8.186,0,0,0-.516-2.7A5.687,5.687,0,0,0,29.129,11.3a8.15,8.15,0,0,0-2.7-.518c-1.186-.054-1.566-.067-4.589-.067" transform="translate(-1.543 -1.543)" fill="#fff"/>
    <path id="Path_26" data-name="Path 26" d="M22.751,17.037a5.715,5.715,0,1,0,5.715,5.715,5.716,5.716,0,0,0-5.715-5.715m0,9.424a3.71,3.71,0,1,1,3.71-3.71,3.71,3.71,0,0,1-3.71,3.71" transform="translate(-2.455 -2.455)" fill="#fff"/>
    <path id="Path_27" data-name="Path 27" d="M31.764,16.548a1.336,1.336,0,1,1-1.335-1.335,1.336,1.336,0,0,1,1.335,1.335" transform="translate(-4.192 -2.192)" fill="#fff"/>
  </g>
</svg>
