<svg xmlns="http://www.w3.org/2000/svg" xmlns:xlink="http://www.w3.org/1999/xlink" width="213.738" height="142.447" viewBox="0 0 213.738 142.447">
  <defs>
    <clipPath id="clip-path">
      <rect id="Rectangle_1" data-name="Rectangle 1" width="213.738" height="142.447" fill="none"/>
    </clipPath>
  </defs>
  <g id="Logo" transform="translate(0 0.004)">
    <path id="Path_1" data-name="Path 1" d="M144.132,875.334l6.7-19.688h4.49l6.431,19.688H158l-1.365-4.247h-7.311l-1.4,4.247Zm6.1-6.947h5.552l-2.761-8.464Z" transform="translate(-126.68 -752.043)" fill="#e7e7e7"/>
    <g id="Group_2" data-name="Group 2" transform="translate(0 -0.004)">
      <g id="Group_1" data-name="Group 1" transform="translate(0 0)" clip-path="url(#clip-path)">
        <path id="Path_2" data-name="Path 2" d="M328.648,855.646h6.37a11.018,11.018,0,0,1,5.263,1.206,8.652,8.652,0,0,1,3.519,3.42,10.414,10.414,0,0,1,1.259,5.233,10.307,10.307,0,0,1-1.259,5.2,8.715,8.715,0,0,1-3.519,3.42,10.958,10.958,0,0,1-5.263,1.213h-6.37Zm3.58,3.246v13.226h2.791a6.114,6.114,0,0,0,3.3-.864,5.779,5.779,0,0,0,2.139-2.359,8.079,8.079,0,0,0,0-6.8,5.737,5.737,0,0,0-2.139-2.343,6.157,6.157,0,0,0-3.3-.857Z" transform="translate(-288.854 -752.04)" fill="#e7e7e7"/>
        <path id="Path_3" data-name="Path 3" d="M500.271,871.422l5.036-15.775h3.761L502.3,875.335h-3.762l-6.674-19.688h3.792l4.975,15.775Z" transform="translate(-432.311 -752.04)" fill="#e7e7e7"/>
        <path id="Path_4" data-name="Path 4" d="M671.372,875.334V855.646h12.65v3.094h-9.07v5.188h8.524v3.094h-8.524v5.187h9.07v3.125Z" transform="translate(-590.079 -752.04)" fill="#e7e7e7"/>
        <path id="Path_5" data-name="Path 5" d="M828.079,855.647h3.913l8.949,14.045h-.273V855.647h3.579v19.688h-3.64l-9.525-14.895h.576v14.895h-3.579Z" transform="translate(-727.811 -752.04)" fill="#e7e7e7"/>
        <path id="Path_6" data-name="Path 6" d="M996.435,858.741v-3.094h15.775v3.094h-6.9l.8-.819v17.413h-3.58V857.922l.8.819Z" transform="translate(-875.781 -752.04)" fill="#e7e7e7"/>
        <path id="Path_7" data-name="Path 7" d="M1158.9,855.647h3.58V867.9a4.423,4.423,0,0,0,1.236,3.5,5.193,5.193,0,0,0,6.333,0,4.439,4.439,0,0,0,1.229-3.5V855.647h3.58V867.9a8.786,8.786,0,0,1-.956,4.247,6.406,6.406,0,0,1-2.738,2.685,10.385,10.385,0,0,1-8.57,0,6.406,6.406,0,0,1-2.738-2.685,8.785,8.785,0,0,1-.956-4.247Z" transform="translate(-1018.577 -752.04)" fill="#e7e7e7"/>
        <path id="Path_8" data-name="Path 8" d="M1344.3,875.334V855.646h7.28A7.987,7.987,0,0,1,1357,857.3a5.54,5.54,0,0,1,1.888,4.383,5.465,5.465,0,0,1-1.888,4.33,8.01,8.01,0,0,1-5.423,1.646h-3.7v7.675Zm3.58-10.071h3.337a4.371,4.371,0,0,0,2.988-.9,2.988,2.988,0,0,0,1.016-2.344,3.168,3.168,0,0,0-.925-2.374,3.738,3.738,0,0,0-2.715-.9h-3.7Zm7.068,10.071-5.218-9.222h3.823l6.067,9.222Z" transform="translate(-1181.521 -752.04)" fill="#e7e7e7"/>
        <path id="Path_9" data-name="Path 9" d="M1515.282,875.334V855.646h12.65v3.094h-9.07v5.188h8.524v3.094h-8.524v5.187h9.07v3.125Z" transform="translate(-1331.804 -752.04)" fill="#e7e7e7"/>
        <path id="Path_10" data-name="Path 10" d="M487.542,653.452,493.3,636.8h1.847l5.676,16.651h-1.645l-1.537-4.624h-6.863l-1.6,4.624Zm3.64-5.892h6.027l-3.02-8.818Z" transform="translate(-428.508 -559.693)" fill="#e7e7e7"/>
        <path id="Path_11" data-name="Path 11" d="M644.1,636.8V652.09h7.725v1.362h-9.289V636.8Z" transform="translate(-564.735 -559.693)" fill="#e7e7e7"/>
        <path id="Path_12" data-name="Path 12" d="M760.9,636.8V652.09h7.725v1.362h-9.289V636.8Z" transform="translate(-667.394 -559.693)" fill="#e7e7e7"/>
        <path id="Path_13" data-name="Path 13" d="M925.689,653.452l5.757-16.651h1.847l5.676,16.651h-1.645l-1.537-4.624h-6.863l-1.6,4.624Zm3.64-5.892h6.027l-3.02-8.818Z" transform="translate(-813.602 -559.693)" fill="#e7e7e7"/>
        <path id="Path_14" data-name="Path 14" d="M1080.683,653.451V636.8h5.973a6.392,6.392,0,0,1,2.953.607,4.211,4.211,0,0,1,1.752,1.591,4.1,4.1,0,0,1,.58,2.117,4.161,4.161,0,0,1-.8,2.528,3.939,3.939,0,0,1-2.44,1.449,3.869,3.869,0,0,1,1.861.728,4.233,4.233,0,0,1,1.234,1.422,3.639,3.639,0,0,1,.438,1.719,4.96,4.96,0,0,1-.29,1.685,3.707,3.707,0,0,1-.944,1.436,4.646,4.646,0,0,1-1.726,1,8.124,8.124,0,0,1-2.636.371Zm1.564-15.316v6.337h4.355a4.12,4.12,0,0,0,2.7-.849,2.956,2.956,0,0,0,1.038-2.427,2.726,2.726,0,0,0-1-2.258,4.213,4.213,0,0,0-2.7-.8Zm0,13.954h4.4a4.217,4.217,0,0,0,3.04-.9,3.093,3.093,0,0,0,.91-2.292,2.8,2.8,0,0,0-1.011-2.252,4.461,4.461,0,0,0-2.939-.849h-4.4Z" transform="translate(-949.828 -559.693)" fill="#e7e7e7"/>
        <path id="Path_15" data-name="Path 15" d="M1227.236,651.791a6.892,6.892,0,0,1-3.586-.944,6.522,6.522,0,0,1-2.521-2.852,10.871,10.871,0,0,1-.93-4.78,11.07,11.07,0,0,1,.93-4.833,6.511,6.511,0,0,1,2.521-2.865,7.237,7.237,0,0,1,7.159.007,6.558,6.558,0,0,1,2.521,2.872,11.039,11.039,0,0,1,.93,4.82,10.9,10.9,0,0,1-.93,4.8,6.488,6.488,0,0,1-2.521,2.838,6.906,6.906,0,0,1-3.573.937m0-1.47a4.789,4.789,0,0,0,3.95-1.8,8.394,8.394,0,0,0,1.443-5.332,8.593,8.593,0,0,0-1.443-5.346,5.106,5.106,0,0,0-7.9.007,8.591,8.591,0,0,0-1.456,5.366,8.283,8.283,0,0,0,1.456,5.312,4.82,4.82,0,0,0,3.95,1.793" transform="translate(-1072.45 -557.736)" fill="#e7e7e7"/>
        <path id="Path_16" data-name="Path 16" d="M1383.433,636.8H1385v10.773a4.6,4.6,0,0,0,1.254,3.607,4.793,4.793,0,0,0,3.3,1.112,4.728,4.728,0,0,0,3.27-1.112,4.614,4.614,0,0,0,1.247-3.607V636.8h1.564v10.773a7.048,7.048,0,0,1-.762,3.458,4.841,4.841,0,0,1-2.13,2.043,7.135,7.135,0,0,1-3.189.674,7.221,7.221,0,0,1-3.2-.674,4.863,4.863,0,0,1-2.15-2.043,6.994,6.994,0,0,1-.769-3.458Z" transform="translate(-1215.92 -559.693)" fill="#e7e7e7"/>
        <path id="Path_17" data-name="Path 17" d="M1521.835,638.136V636.8H1534.6v1.335h-5.973l.351-.364v15.68h-1.564v-15.68l.351.364Z" transform="translate(-1337.563 -559.694)" fill="#e7e7e7"/>
        <path id="Path_18" data-name="Path 18" d="M211.153,208.725l-1.1-1.282,69.963-73.61,53.563,44.924,11.765-12.393,1.233,1.17-12.865,13.552-21.822-18.3-21.532,17.347-21.211-12.055Zm68.99-72.563-63.009,66.294,51.912-36.389,21.14,12.015,20.37-16.411Z" transform="translate(-184.615 -117.628)" fill="#e7e7e7"/>
        <path id="Path_19" data-name="Path 19" d="M843.33,63.2,776.444,2.493l-38.92,50.5-1.346-1.038L776.222,0l68.25,61.95Z" transform="translate(-647.037 0.004)" fill="#e7e7e7"/>
        <path id="Path_20" data-name="Path 20" d="M1131.652,69.109h-29.314l-40.4-61.715,1.422-.931,25.821,39.445,18.249-21.048Zm-28.4-1.7h25.527l-21.67-39.59-16.964,19.566Z" transform="translate(-933.353 -5.679)" fill="#e7e7e7"/>
        <path id="Path_21" data-name="Path 21" d="M213.737,432.934H0V330.507H54.381v1.7H1.7v99.028H212.037V332.207H197.684v-1.7h16.053Z" transform="translate(0 -290.487)" fill="#eec245"/>
      </g>
    </g>
  </g>
</svg>
