<svg xmlns="http://www.w3.org/2000/svg" xmlns:xlink="http://www.w3.org/1999/xlink" width="27.323" height="27.323" viewBox="0 0 27.323 27.323">
  <defs>
    <clipPath id="clip-path">
      <rect id="Rectangle_4" data-name="Rectangle 4" width="27.323" height="27.323" fill="none"/>
    </clipPath>
  </defs>
  <g id="mobile_email" data-name="mobile email" clip-path="url(#clip-path)">
    <path id="Path_28" data-name="Path 28" d="M22.444,27.323H4.879A4.879,4.879,0,0,1,0,22.444V4.879A4.879,4.879,0,0,1,4.879,0H22.444a4.879,4.879,0,0,1,4.879,4.879V22.444a4.879,4.879,0,0,1-4.879,4.879" transform="translate(0 0)" fill="#d75c33"/>
    <path id="Path_29" data-name="Path 29" d="M14.434,15.471l4.357,4.944a1.306,1.306,0,0,0,1.959,0l4.282-4.858a.457.457,0,0,1,.121-.1,1.471,1.471,0,0,0-.592-.124h-9.58a1.471,1.471,0,0,0-.569.113c.007.007.016.013.022.021" transform="translate(-6.109 -6.501)" fill="#fff"/>
    <path id="Path_30" data-name="Path 30" d="M25.143,16.541a.459.459,0,0,1-.084.141L20.777,21.54a2.235,2.235,0,0,1-3.353,0L13.067,16.6c-.009-.01-.015-.021-.022-.032a1.474,1.474,0,0,0-.213.763v6.691A1.48,1.48,0,0,0,14.31,25.5h9.581a1.48,1.48,0,0,0,1.479-1.48V17.327a1.472,1.472,0,0,0-.228-.786" transform="translate(-5.439 -7.012)" fill="#fff"/>
    <path id="Path_31" data-name="Path 31" d="M14.434,15.471l4.357,4.944a1.306,1.306,0,0,0,1.959,0l4.282-4.858a.457.457,0,0,1,.121-.1,1.471,1.471,0,0,0-.592-.124h-9.58a1.471,1.471,0,0,0-.569.113c.007.007.016.013.022.021" transform="translate(-6.109 -6.501)" fill="#fff"/>
    <path id="Path_32" data-name="Path 32" d="M25.143,16.541a.459.459,0,0,1-.084.141L20.777,21.54a2.235,2.235,0,0,1-3.353,0L13.067,16.6c-.009-.01-.015-.021-.022-.032a1.474,1.474,0,0,0-.213.763v6.691A1.48,1.48,0,0,0,14.31,25.5h9.581a1.48,1.48,0,0,0,1.479-1.48V17.327a1.472,1.472,0,0,0-.228-.786" transform="translate(-5.439 -7.012)" fill="#fff"/>
  </g>
</svg>
