<svg xmlns="http://www.w3.org/2000/svg" xmlns:xlink="http://www.w3.org/1999/xlink" width="27.323" height="27.323" viewBox="0 0 27.323 27.323">
  <defs>
    <clipPath id="clip-path">
      <rect id="Rectangle_3" data-name="Rectangle 3" width="27.323" height="27.323" fill="none"/>
    </clipPath>
  </defs>
  <g id="mobile_IG" data-name="mobile IG" clip-path="url(#clip-path)">
    <path id="Path_24" data-name="Path 24" d="M22.444,27.323H4.879A4.879,4.879,0,0,1,0,22.444V4.879A4.879,4.879,0,0,1,4.879,0H22.444a4.879,4.879,0,0,1,4.879,4.879V22.444a4.879,4.879,0,0,1-4.879,4.879" transform="translate(0 0)" fill="#d75c33"/>
    <path id="Path_25" data-name="Path 25" d="M18.2,12.061c2,0,2.237.007,3.027.044a4.122,4.122,0,0,1,1.391.258,2.481,2.481,0,0,1,1.421,1.421,4.143,4.143,0,0,1,.259,1.391c.035.79.043,1.027.043,3.027s-.008,2.237-.043,3.027a4.147,4.147,0,0,1-.259,1.391,2.481,2.481,0,0,1-1.421,1.421,4.151,4.151,0,0,1-1.391.258c-.79.036-1.027.044-3.027.044s-2.237-.008-3.027-.044a4.147,4.147,0,0,1-1.391-.258,2.48,2.48,0,0,1-1.422-1.421,4.151,4.151,0,0,1-.258-1.391c-.036-.79-.043-1.027-.043-3.027s.007-2.237.043-3.027a4.147,4.147,0,0,1,.258-1.391,2.48,2.48,0,0,1,1.422-1.421,4.117,4.117,0,0,1,1.391-.258c.79-.036,1.027-.044,3.027-.044m0-1.35c-2.034,0-2.289.009-3.088.045a5.485,5.485,0,0,0-1.818.349,3.826,3.826,0,0,0-2.19,2.19,5.492,5.492,0,0,0-.349,1.818c-.036.8-.045,1.054-.045,3.088s.009,2.289.045,3.088a5.485,5.485,0,0,0,.349,1.818,3.829,3.829,0,0,0,2.19,2.191,5.5,5.5,0,0,0,1.818.348c.8.037,1.054.045,3.088.045s2.29-.008,3.088-.045a5.5,5.5,0,0,0,1.818-.348A3.831,3.831,0,0,0,25.3,23.108a5.5,5.5,0,0,0,.347-1.818c.037-.8.045-1.054.045-3.088s-.008-2.289-.045-3.088a5.51,5.51,0,0,0-.347-1.818,3.828,3.828,0,0,0-2.191-2.19,5.485,5.485,0,0,0-1.818-.349c-.8-.036-1.054-.045-3.088-.045" transform="translate(-4.54 -4.54)" fill="#fff"/>
    <path id="Path_26" data-name="Path 26" d="M20.883,17.037a3.847,3.847,0,1,0,3.847,3.847,3.847,3.847,0,0,0-3.847-3.847m0,6.343a2.5,2.5,0,1,1,2.5-2.5,2.5,2.5,0,0,1-2.5,2.5" transform="translate(-7.222 -7.222)" fill="#fff"/>
    <path id="Path_27" data-name="Path 27" d="M30.891,16.112a.9.9,0,1,1-.9-.9.9.9,0,0,1,.9.9" transform="translate(-12.332 -6.449)" fill="#fff"/>
  </g>
</svg>
